<svg width="1000" height="400" viewBox="0 0 1000 400" xmlns="http://www.w3.org/2000/svg">
<title>Equipment: C++, C# / .NET, Python, TypeScript, Half plate (Docker), Kubernetes, dbt, PyTorch, Tinker&#x27;s tools (VS Code), llama.cpp, whisper.cpp, Live2D, SkiaSharp, Direct2D</title>
<defs><style>
  .rar { font: bold 22px Georgia, 'Palatino Linotype', 'Book Antiqua', 'Times New Roman', serif; letter-spacing: 3px; }
  .nm { font: bold 40px Georgia, 'Palatino Linotype', 'Book Antiqua', 'Times New Roman', serif; fill: #f1eaff; }
  .ds { font: 28px Georgia, 'Palatino Linotype', 'Book Antiqua', 'Times New Roman', serif; fill: #d9ccf7; }
  .st { font: italic 24px Georgia, 'Palatino Linotype', 'Book Antiqua', 'Times New Roman', serif; fill: #b9a6f0; }
  .lb { font: 18px Georgia, 'Palatino Linotype', 'Book Antiqua', 'Times New Roman', serif; letter-spacing: 3px; fill: #a997e8; }
  .tl { font: bold 32px Georgia, 'Palatino Linotype', 'Book Antiqua', 'Times New Roman', serif; fill: #f1eaff; }
  .eq { font: 30px Georgia, 'Palatino Linotype', 'Book Antiqua', 'Times New Roman', serif; fill: #d9ccf7; }
</style>
<linearGradient id="pf" x1="0" y1="0" x2="1" y2="1"><stop offset="0" stop-color="#2a2358"/><stop offset="1" stop-color="#171233"/></linearGradient>
<pattern id="grain" width="120" height="120" patternUnits="userSpaceOnUse"><g fill="#e9dcff"><circle cx="79.7" cy="34.5" r="0.53" fill-opacity="0.07"/><circle cx="19.9" cy="101.9" r="0.68" fill-opacity="0.11"/><circle cx="119.1" cy="46.1" r="0.62" fill-opacity="0.05"/><circle cx="117.1" cy="104.9" r="0.68" fill-opacity="0.09"/><circle cx="85.3" cy="25.1" r="0.75" fill-opacity="0.06"/><circle cx="56.9" cy="10.3" r="0.91" fill-opacity="0.06"/><circle cx="17.3" cy="2.1" r="0.92" fill-opacity="0.05"/><circle cx="46.8" cy="10.4" r="0.98" fill-opacity="0.05"/><circle cx="59.8" cy="69.9" r="0.97" fill-opacity="0.09"/><circle cx="110.1" cy="94.3" r="0.98" fill-opacity="0.08"/><circle cx="51.3" cy="34.8" r="0.91" fill-opacity="0.10"/><circle cx="87.7" cy="1.1" r="0.75" fill-opacity="0.09"/><circle cx="103.8" cy="47.3" r="0.62" fill-opacity="0.05"/><circle cx="37.2" cy="94.4" r="0.93" fill-opacity="0.07"/><circle cx="27.8" cy="41.8" r="0.60" fill-opacity="0.09"/><circle cx="14.7" cy="86.2" r="0.92" fill-opacity="0.11"/><circle cx="97.5" cy="57.3" r="0.61" fill-opacity="0.08"/><circle cx="10.9" cy="27.5" r="0.98" fill-opacity="0.10"/><circle cx="12.1" cy="33.8" r="1.09" fill-opacity="0.06"/><circle cx="64.8" cy="60.1" r="0.41" fill-opacity="0.05"/><circle cx="114.9" cy="51.1" r="0.72" fill-opacity="0.05"/><circle cx="80.1" cy="80.3" r="0.74" fill-opacity="0.05"/><circle cx="94.2" cy="50.8" r="0.64" fill-opacity="0.07"/><circle cx="16.4" cy="64.4" r="0.61" fill-opacity="0.06"/><circle cx="94.3" cy="10.3" r="0.50" fill-opacity="0.04"/><circle cx="71.9" cy="92.8" r="0.74" fill-opacity="0.08"/><circle cx="31.4" cy="119.6" r="0.74" fill-opacity="0.09"/><circle cx="104.7" cy="57.0" r="0.67" fill-opacity="0.04"/><circle cx="4.3" cy="10.2" r="1.00" fill-opacity="0.07"/><circle cx="65.0" cy="55.0" r="0.47" fill-opacity="0.06"/><circle cx="73.6" cy="72.6" r="0.49" fill-opacity="0.08"/><circle cx="39.3" cy="76.4" r="0.99" fill-opacity="0.10"/><circle cx="7.9" cy="14.7" r="1.04" fill-opacity="0.07"/><circle cx="27.0" cy="99.2" r="0.88" fill-opacity="0.04"/><circle cx="10.1" cy="70.3" r="0.84" fill-opacity="0.11"/><circle cx="43.4" cy="66.6" r="0.48" fill-opacity="0.05"/><circle cx="82.5" cy="16.0" r="0.93" fill-opacity="0.07"/><circle cx="110.9" cy="110.5" r="0.68" fill-opacity="0.07"/><circle cx="36.0" cy="7.8" r="0.83" fill-opacity="0.06"/><circle cx="11.6" cy="82.1" r="1.04" fill-opacity="0.06"/><circle cx="59.1" cy="105.6" r="0.68" fill-opacity="0.07"/><circle cx="94.2" cy="73.3" r="0.65" fill-opacity="0.08"/><circle cx="105.8" cy="34.3" r="0.51" fill-opacity="0.10"/><circle cx="33.0" cy="23.3" r="0.77" fill-opacity="0.05"/><circle cx="37.3" cy="95.4" r="0.68" fill-opacity="0.10"/><circle cx="117.8" cy="25.2" r="0.85" fill-opacity="0.04"/><circle cx="64.0" cy="22.1" r="0.42" fill-opacity="0.10"/><circle cx="14.4" cy="81.7" r="0.90" fill-opacity="0.11"/><circle cx="75.0" cy="76.1" r="0.55" fill-opacity="0.10"/><circle cx="61.6" cy="60.4" r="0.61" fill-opacity="0.05"/><circle cx="7.0" cy="43.2" r="0.66" fill-opacity="0.09"/><circle cx="45.0" cy="92.8" r="0.63" fill-opacity="0.09"/><circle cx="27.8" cy="8.3" r="0.62" fill-opacity="0.09"/><circle cx="87.5" cy="112.2" r="0.54" fill-opacity="0.10"/><circle cx="107.2" cy="72.1" r="0.81" fill-opacity="0.11"/><circle cx="52.2" cy="59.2" r="0.53" fill-opacity="0.08"/><circle cx="36.9" cy="11.4" r="0.51" fill-opacity="0.08"/><circle cx="84.9" cy="33.9" r="0.95" fill-opacity="0.06"/><circle cx="10.8" cy="26.3" r="0.74" fill-opacity="0.11"/><circle cx="5.6" cy="75.8" r="0.57" fill-opacity="0.06"/><circle cx="28.2" cy="90.4" r="0.48" fill-opacity="0.09"/><circle cx="23.7" cy="26.7" r="0.41" fill-opacity="0.10"/><circle cx="84.7" cy="68.3" r="0.44" fill-opacity="0.10"/><circle cx="115.4" cy="78.4" r="0.87" fill-opacity="0.04"/><circle cx="114.8" cy="56.4" r="0.75" fill-opacity="0.09"/><circle cx="20.5" cy="56.1" r="0.99" fill-opacity="0.06"/><circle cx="105.4" cy="108.2" r="0.85" fill-opacity="0.09"/><circle cx="74.1" cy="108.0" r="0.69" fill-opacity="0.07"/><circle cx="2.9" cy="12.7" r="0.93" fill-opacity="0.07"/><circle cx="115.5" cy="72.9" r="0.78" fill-opacity="0.06"/><circle cx="76.2" cy="41.8" r="0.76" fill-opacity="0.07"/><circle cx="28.4" cy="51.1" r="0.68" fill-opacity="0.07"/><circle cx="99.9" cy="37.5" r="0.48" fill-opacity="0.09"/><circle cx="104.4" cy="92.1" r="0.90" fill-opacity="0.11"/><circle cx="5.4" cy="46.6" r="0.61" fill-opacity="0.04"/><circle cx="70.8" cy="98.9" r="0.71" fill-opacity="0.05"/><circle cx="20.1" cy="81.8" r="0.62" fill-opacity="0.06"/><circle cx="50.3" cy="76.4" r="0.91" fill-opacity="0.10"/><circle cx="110.2" cy="33.5" r="1.04" fill-opacity="0.08"/><circle cx="102.6" cy="98.7" r="0.96" fill-opacity="0.08"/><circle cx="68.6" cy="22.1" r="0.46" fill-opacity="0.09"/><circle cx="70.2" cy="95.8" r="0.93" fill-opacity="0.10"/><circle cx="96.9" cy="0.6" r="1.06" fill-opacity="0.09"/><circle cx="83.0" cy="65.2" r="0.58" fill-opacity="0.05"/><circle cx="96.2" cy="71.9" r="1.04" fill-opacity="0.07"/><circle cx="39.4" cy="81.8" r="0.54" fill-opacity="0.10"/><circle cx="67.0" cy="52.2" r="0.49" fill-opacity="0.06"/><circle cx="36.4" cy="9.0" r="0.75" fill-opacity="0.05"/><circle cx="28.9" cy="58.7" r="0.95" fill-opacity="0.06"/><circle cx="7.5" cy="88.4" r="0.41" fill-opacity="0.10"/><circle cx="92.7" cy="107.5" r="0.85" fill-opacity="0.10"/><circle cx="105.9" cy="104.4" r="0.85" fill-opacity="0.05"/><circle cx="115.0" cy="40.4" r="0.60" fill-opacity="0.08"/><circle cx="37.8" cy="36.9" r="0.92" fill-opacity="0.11"/><circle cx="51.5" cy="62.2" r="0.63" fill-opacity="0.08"/><circle cx="20.7" cy="115.0" r="0.99" fill-opacity="0.05"/><circle cx="25.8" cy="68.0" r="0.63" fill-opacity="0.07"/><circle cx="88.1" cy="7.0" r="0.59" fill-opacity="0.10"/><circle cx="79.0" cy="78.1" r="0.59" fill-opacity="0.07"/><circle cx="109.8" cy="15.8" r="0.58" fill-opacity="0.11"/><circle cx="106.8" cy="64.8" r="0.84" fill-opacity="0.06"/><circle cx="81.7" cy="75.6" r="0.94" fill-opacity="0.06"/><circle cx="89.0" cy="59.9" r="0.92" fill-opacity="0.05"/><circle cx="56.4" cy="96.1" r="0.60" fill-opacity="0.10"/><circle cx="8.2" cy="61.1" r="1.05" fill-opacity="0.07"/><circle cx="114.2" cy="91.1" r="1.00" fill-opacity="0.07"/><circle cx="47.2" cy="118.7" r="0.69" fill-opacity="0.09"/><circle cx="102.2" cy="83.3" r="0.82" fill-opacity="0.09"/><circle cx="38.1" cy="112.6" r="0.93" fill-opacity="0.10"/><circle cx="77.0" cy="60.4" r="0.62" fill-opacity="0.07"/></g></pattern>

</defs>
<g transform="rotate(0 500.0 200.0)">
<g fill="url(#pf)"><rect x="12" y="12" width="976" height="376" rx="12"/></g>
<g fill="url(#grain)"><rect x="12" y="12" width="976" height="376" rx="12"/></g>
<rect x="12" y="12" width="976" height="376" rx="12" fill="none" stroke="#7a66c0" stroke-width="2"/>
<text x="54" y="68" class="lb" text-anchor="start">WEAPONS</text><text x="54" y="120" class="eq">C++</text><text x="54" y="164" class="eq">C# / .NET</text><text x="54" y="208" class="eq">Python</text><text x="54" y="252" class="eq">TypeScript</text><text x="290" y="68" class="lb" text-anchor="start">ARMOR &amp; TOOLS</text><text x="290" y="120" class="eq">Half plate <tspan font-style="italic" font-size="24" fill="#b9a6f0">(Docker)</tspan></text><text x="290" y="164" class="eq">Kubernetes</text><text x="290" y="208" class="eq">dbt</text><text x="290" y="252" class="eq">PyTorch</text><text x="600" y="68" class="lb" text-anchor="start">PACK</text><text x="600" y="120" class="eq">Tinker&#x27;s tools <tspan font-style="italic" font-size="24" fill="#b9a6f0">(VS Code)</tspan></text><text x="600" y="164" class="eq">llama.cpp</text><text x="600" y="208" class="eq">whisper.cpp</text><text x="600" y="252" class="eq">Live2D</text><text x="600" y="296" class="eq">SkiaSharp</text><text x="600" y="340" class="eq">Direct2D</text>
</g>
</svg>