<svg width="1000" height="72" viewBox="0 0 1000 72" xmlns="http://www.w3.org/2000/svg">
<title>Infusions</title>
<defs><linearGradient id="p" x1="0" y1="0" x2="1" y2="1"><stop offset="0" stop-color="#f6f0ff"/><stop offset="1" stop-color="#e0d2fb"/></linearGradient><pattern id="grain" width="120" height="120" patternUnits="userSpaceOnUse"><g fill="#3a2a5e"><circle cx="38.9" cy="18.1" r="0.86" fill-opacity="0.09"/><circle cx="64.3" cy="43.9" r="0.44" fill-opacity="0.15"/><circle cx="4.5" cy="52.0" r="0.45" fill-opacity="0.09"/><circle cx="50.9" cy="99.2" r="0.49" fill-opacity="0.11"/><circle cx="75.3" cy="113.7" r="0.80" fill-opacity="0.14"/><circle cx="117.2" cy="5.6" r="1.00" fill-opacity="0.12"/><circle cx="17.3" cy="14.1" r="0.62" fill-opacity="0.19"/><circle cx="21.7" cy="69.8" r="0.85" fill-opacity="0.13"/><circle cx="65.7" cy="7.5" r="0.44" fill-opacity="0.11"/><circle cx="81.6" cy="51.3" r="0.62" fill-opacity="0.16"/><circle cx="54.4" cy="36.0" r="0.96" fill-opacity="0.18"/><circle cx="29.3" cy="68.9" r="0.77" fill-opacity="0.20"/><circle cx="87.5" cy="34.6" r="1.09" fill-opacity="0.10"/><circle cx="50.2" cy="90.9" r="0.51" fill-opacity="0.15"/><circle cx="4.7" cy="80.2" r="0.94" fill-opacity="0.16"/><circle cx="105.1" cy="37.6" r="0.89" fill-opacity="0.16"/><circle cx="69.6" cy="54.7" r="0.99" fill-opacity="0.21"/><circle cx="56.9" cy="79.7" r="0.44" fill-opacity="0.18"/><circle cx="77.7" cy="119.2" r="0.98" fill-opacity="0.12"/><circle cx="46.3" cy="80.2" r="0.42" fill-opacity="0.14"/><circle cx="20.2" cy="14.1" r="0.44" fill-opacity="0.19"/><circle cx="15.5" cy="29.7" r="0.67" fill-opacity="0.20"/><circle cx="9.7" cy="53.9" r="0.78" fill-opacity="0.20"/><circle cx="98.3" cy="103.7" r="0.59" fill-opacity="0.14"/><circle cx="43.1" cy="106.1" r="1.07" fill-opacity="0.10"/><circle cx="21.1" cy="27.8" r="0.56" fill-opacity="0.15"/><circle cx="70.7" cy="31.5" r="0.40" fill-opacity="0.14"/><circle cx="44.3" cy="68.0" r="1.07" fill-opacity="0.18"/><circle cx="61.9" cy="74.1" r="0.87" fill-opacity="0.09"/><circle cx="107.9" cy="93.6" r="1.01" fill-opacity="0.19"/><circle cx="47.1" cy="47.9" r="0.47" fill-opacity="0.17"/><circle cx="7.5" cy="8.1" r="0.55" fill-opacity="0.10"/><circle cx="40.8" cy="6.3" r="0.40" fill-opacity="0.10"/><circle cx="12.2" cy="43.6" r="0.42" fill-opacity="0.20"/><circle cx="73.7" cy="17.8" r="0.58" fill-opacity="0.13"/><circle cx="43.7" cy="14.7" r="0.99" fill-opacity="0.22"/><circle cx="55.9" cy="58.1" r="0.46" fill-opacity="0.09"/><circle cx="41.1" cy="31.8" r="0.98" fill-opacity="0.10"/><circle cx="2.8" cy="114.1" r="0.77" fill-opacity="0.10"/><circle cx="65.2" cy="3.2" r="0.77" fill-opacity="0.22"/><circle cx="103.6" cy="83.5" r="0.58" fill-opacity="0.13"/><circle cx="20.0" cy="92.6" r="0.77" fill-opacity="0.19"/><circle cx="39.6" cy="26.8" r="0.97" fill-opacity="0.22"/><circle cx="102.3" cy="96.7" r="0.97" fill-opacity="0.18"/><circle cx="27.2" cy="62.1" r="0.65" fill-opacity="0.08"/><circle cx="3.4" cy="33.5" r="0.58" fill-opacity="0.18"/><circle cx="114.8" cy="53.7" r="1.06" fill-opacity="0.22"/><circle cx="114.6" cy="43.8" r="0.55" fill-opacity="0.11"/><circle cx="23.6" cy="24.5" r="0.84" fill-opacity="0.21"/><circle cx="100.9" cy="57.5" r="0.86" fill-opacity="0.19"/><circle cx="10.2" cy="79.3" r="1.04" fill-opacity="0.19"/><circle cx="90.0" cy="57.4" r="0.52" fill-opacity="0.19"/><circle cx="39.9" cy="96.1" r="1.08" fill-opacity="0.14"/><circle cx="48.2" cy="113.6" r="0.91" fill-opacity="0.10"/><circle cx="15.2" cy="18.1" r="1.03" fill-opacity="0.19"/><circle cx="17.5" cy="99.2" r="1.09" fill-opacity="0.17"/><circle cx="42.0" cy="65.8" r="0.49" fill-opacity="0.08"/><circle cx="116.5" cy="78.0" r="0.77" fill-opacity="0.21"/><circle cx="52.1" cy="104.6" r="0.98" fill-opacity="0.11"/><circle cx="30.2" cy="35.2" r="0.57" fill-opacity="0.16"/><circle cx="31.1" cy="50.3" r="0.49" fill-opacity="0.21"/><circle cx="42.5" cy="55.0" r="0.81" fill-opacity="0.21"/><circle cx="50.5" cy="110.1" r="0.75" fill-opacity="0.15"/><circle cx="62.8" cy="2.2" r="0.71" fill-opacity="0.11"/><circle cx="0.5" cy="95.9" r="0.52" fill-opacity="0.15"/><circle cx="87.0" cy="66.8" r="0.63" fill-opacity="0.15"/><circle cx="66.7" cy="94.1" r="0.47" fill-opacity="0.16"/><circle cx="29.8" cy="33.2" r="0.94" fill-opacity="0.15"/><circle cx="67.4" cy="91.2" r="1.04" fill-opacity="0.14"/><circle cx="73.5" cy="60.7" r="0.76" fill-opacity="0.18"/><circle cx="54.3" cy="64.0" r="0.73" fill-opacity="0.21"/><circle cx="83.9" cy="105.2" r="1.06" fill-opacity="0.12"/><circle cx="67.1" cy="113.2" r="0.99" fill-opacity="0.10"/><circle cx="14.6" cy="53.1" r="0.45" fill-opacity="0.11"/><circle cx="8.8" cy="80.3" r="0.95" fill-opacity="0.21"/><circle cx="18.5" cy="85.9" r="0.86" fill-opacity="0.10"/><circle cx="105.9" cy="116.1" r="0.55" fill-opacity="0.21"/><circle cx="47.8" cy="58.5" r="1.09" fill-opacity="0.20"/><circle cx="19.4" cy="51.8" r="0.76" fill-opacity="0.13"/><circle cx="23.5" cy="38.2" r="0.91" fill-opacity="0.08"/><circle cx="66.5" cy="52.9" r="0.41" fill-opacity="0.13"/><circle cx="74.9" cy="61.5" r="0.45" fill-opacity="0.22"/><circle cx="94.6" cy="116.6" r="0.47" fill-opacity="0.12"/><circle cx="4.8" cy="93.5" r="0.59" fill-opacity="0.10"/><circle cx="50.7" cy="109.4" r="0.97" fill-opacity="0.12"/><circle cx="17.9" cy="110.3" r="0.80" fill-opacity="0.18"/><circle cx="10.7" cy="6.9" r="0.88" fill-opacity="0.14"/><circle cx="8.7" cy="112.6" r="0.84" fill-opacity="0.19"/><circle cx="10.0" cy="102.7" r="0.45" fill-opacity="0.20"/><circle cx="54.5" cy="40.7" r="0.79" fill-opacity="0.21"/><circle cx="32.1" cy="15.5" r="0.77" fill-opacity="0.11"/><circle cx="13.1" cy="19.4" r="0.44" fill-opacity="0.11"/><circle cx="37.4" cy="36.6" r="0.93" fill-opacity="0.12"/><circle cx="60.0" cy="21.3" r="0.64" fill-opacity="0.08"/><circle cx="30.1" cy="1.8" r="0.91" fill-opacity="0.16"/><circle cx="22.7" cy="57.0" r="1.05" fill-opacity="0.09"/><circle cx="98.3" cy="51.9" r="0.75" fill-opacity="0.20"/><circle cx="47.2" cy="60.8" r="0.88" fill-opacity="0.22"/><circle cx="41.1" cy="99.9" r="0.89" fill-opacity="0.17"/><circle cx="48.6" cy="41.7" r="0.44" fill-opacity="0.10"/><circle cx="8.5" cy="88.9" r="0.58" fill-opacity="0.10"/><circle cx="10.1" cy="101.0" r="1.01" fill-opacity="0.17"/><circle cx="33.8" cy="29.1" r="0.61" fill-opacity="0.14"/><circle cx="18.9" cy="53.5" r="0.58" fill-opacity="0.21"/><circle cx="116.7" cy="65.6" r="0.57" fill-opacity="0.22"/><circle cx="37.1" cy="42.8" r="0.40" fill-opacity="0.13"/><circle cx="57.0" cy="60.3" r="0.54" fill-opacity="0.15"/><circle cx="0.6" cy="31.7" r="0.46" fill-opacity="0.14"/><circle cx="5.0" cy="2.7" r="0.61" fill-opacity="0.11"/><circle cx="70.3" cy="63.5" r="0.93" fill-opacity="0.17"/></g></pattern></defs>
<path d="M72 36 H330 M670 36 H928" stroke="#b9a2f0" stroke-width="1.6"/>
<g transform="translate(60 36)" fill="#f4a9cf"><ellipse rx="3.9" ry="7.0" transform="rotate(0) translate(0 -7.0)"/><ellipse rx="3.9" ry="7.0" transform="rotate(72) translate(0 -7.0)"/><ellipse rx="3.9" ry="7.0" transform="rotate(144) translate(0 -7.0)"/><ellipse rx="3.9" ry="7.0" transform="rotate(216) translate(0 -7.0)"/><ellipse rx="3.9" ry="7.0" transform="rotate(288) translate(0 -7.0)"/><circle r="2.7" fill="#fff3b0"/></g>
<g transform="translate(940 36)" fill="#f4a9cf"><ellipse rx="3.9" ry="7.0" transform="rotate(0) translate(0 -7.0)"/><ellipse rx="3.9" ry="7.0" transform="rotate(72) translate(0 -7.0)"/><ellipse rx="3.9" ry="7.0" transform="rotate(144) translate(0 -7.0)"/><ellipse rx="3.9" ry="7.0" transform="rotate(216) translate(0 -7.0)"/><ellipse rx="3.9" ry="7.0" transform="rotate(288) translate(0 -7.0)"/><circle r="2.7" fill="#fff3b0"/></g>
<path d="M360 12 H640 L654 36 L640 60 H360 L346 36 Z" fill="url(#p)" stroke="#b9a2f0" stroke-width="1.6"/>
<path d="M360 12 H640 L654 36 L640 60 H360 L346 36 Z" fill="url(#grain)"/>
<g transform="translate(346.5 36)" fill="#f4a9cf"><ellipse rx="2.8" ry="5.0" transform="rotate(0) translate(0 -5.0)"/><ellipse rx="2.8" ry="5.0" transform="rotate(72) translate(0 -5.0)"/><ellipse rx="2.8" ry="5.0" transform="rotate(144) translate(0 -5.0)"/><ellipse rx="2.8" ry="5.0" transform="rotate(216) translate(0 -5.0)"/><ellipse rx="2.8" ry="5.0" transform="rotate(288) translate(0 -5.0)"/><circle r="1.9" fill="#fff3b0"/></g>
<g transform="translate(653.5 36)" fill="#f4a9cf"><ellipse rx="2.8" ry="5.0" transform="rotate(0) translate(0 -5.0)"/><ellipse rx="2.8" ry="5.0" transform="rotate(72) translate(0 -5.0)"/><ellipse rx="2.8" ry="5.0" transform="rotate(144) translate(0 -5.0)"/><ellipse rx="2.8" ry="5.0" transform="rotate(216) translate(0 -5.0)"/><ellipse rx="2.8" ry="5.0" transform="rotate(288) translate(0 -5.0)"/><circle r="1.9" fill="#fff3b0"/></g>
<text x="500.0" y="45" text-anchor="middle" font-family="Georgia, &#x27;Palatino Linotype&#x27;, &#x27;Book Antiqua&#x27;, &#x27;Times New Roman&#x27;, serif" font-size="26" font-weight="bold" letter-spacing="5" fill="#3a2a5e" textLength="209" lengthAdjust="spacingAndGlyphs">INFUSIONS</text>
</svg>