<svg width="1000" height="280" viewBox="0 0 1000 280" xmlns="http://www.w3.org/2000/svg">
<title>Mana: legendary companion, the main quest</title>
<defs><style>
  .rar { font: bold 22px Georgia, 'Palatino Linotype', 'Book Antiqua', 'Times New Roman', serif; letter-spacing: 3px; }
  .nm { font: bold 40px Georgia, 'Palatino Linotype', 'Book Antiqua', 'Times New Roman', serif; fill: #3a2a5e; }
  .ds { font: 28px Georgia, 'Palatino Linotype', 'Book Antiqua', 'Times New Roman', serif; fill: #4f4270; }
  .st { font: italic 24px Georgia, 'Palatino Linotype', 'Book Antiqua', 'Times New Roman', serif; fill: #7d66b8; }
  .lb { font: 18px Georgia, 'Palatino Linotype', 'Book Antiqua', 'Times New Roman', serif; letter-spacing: 3px; fill: #8a74c8; }
  .tl { font: bold 32px Georgia, 'Palatino Linotype', 'Book Antiqua', 'Times New Roman', serif; fill: #3a2a5e; }
  .eq { font: 30px Georgia, 'Palatino Linotype', 'Book Antiqua', 'Times New Roman', serif; fill: #4f4270; }
</style>
<linearGradient id="pf" x1="0" y1="0" x2="1" y2="1"><stop offset="0" stop-color="#f6f0ff"/><stop offset="1" stop-color="#e0d2fb"/></linearGradient>
<pattern id="grain" width="120" height="120" patternUnits="userSpaceOnUse"><g fill="#3a2a5e"><circle cx="9.7" cy="12.7" r="0.86" fill-opacity="0.16"/><circle cx="46.7" cy="33.3" r="0.86" fill-opacity="0.19"/><circle cx="32.2" cy="93.5" r="0.73" fill-opacity="0.10"/><circle cx="97.3" cy="93.7" r="0.71" fill-opacity="0.12"/><circle cx="86.5" cy="31.3" r="0.79" fill-opacity="0.20"/><circle cx="97.4" cy="50.2" r="0.58" fill-opacity="0.11"/><circle cx="77.1" cy="11.8" r="1.06" fill-opacity="0.21"/><circle cx="115.8" cy="47.0" r="0.67" fill-opacity="0.09"/><circle cx="73.6" cy="33.1" r="0.72" fill-opacity="0.17"/><circle cx="36.0" cy="69.3" r="0.89" fill-opacity="0.12"/><circle cx="63.0" cy="68.6" r="0.62" fill-opacity="0.16"/><circle cx="106.5" cy="59.8" r="0.65" fill-opacity="0.20"/><circle cx="8.0" cy="86.6" r="0.98" fill-opacity="0.11"/><circle cx="114.5" cy="99.7" r="0.53" fill-opacity="0.12"/><circle cx="53.6" cy="102.8" r="0.58" fill-opacity="0.13"/><circle cx="76.2" cy="11.9" r="0.96" fill-opacity="0.16"/><circle cx="81.9" cy="49.6" r="0.54" fill-opacity="0.19"/><circle cx="85.2" cy="29.4" r="0.90" fill-opacity="0.15"/><circle cx="22.4" cy="44.6" r="0.49" fill-opacity="0.09"/><circle cx="80.9" cy="46.3" r="0.93" fill-opacity="0.14"/><circle cx="31.5" cy="62.5" r="0.94" fill-opacity="0.17"/><circle cx="23.8" cy="14.8" r="0.76" fill-opacity="0.10"/><circle cx="5.4" cy="19.1" r="0.63" fill-opacity="0.17"/><circle cx="2.3" cy="39.5" r="0.54" fill-opacity="0.15"/><circle cx="80.3" cy="66.5" r="1.07" fill-opacity="0.14"/><circle cx="33.9" cy="81.5" r="0.58" fill-opacity="0.18"/><circle cx="5.8" cy="1.4" r="0.83" fill-opacity="0.16"/><circle cx="97.7" cy="74.2" r="0.46" fill-opacity="0.17"/><circle cx="37.0" cy="73.6" r="0.87" fill-opacity="0.09"/><circle cx="14.7" cy="1.8" r="1.08" fill-opacity="0.14"/><circle cx="87.2" cy="31.6" r="0.47" fill-opacity="0.21"/><circle cx="90.8" cy="5.0" r="0.62" fill-opacity="0.15"/><circle cx="68.3" cy="56.6" r="1.07" fill-opacity="0.14"/><circle cx="54.3" cy="114.0" r="0.92" fill-opacity="0.18"/><circle cx="115.7" cy="81.8" r="0.44" fill-opacity="0.10"/><circle cx="95.0" cy="94.5" r="1.05" fill-opacity="0.09"/><circle cx="78.8" cy="110.0" r="0.78" fill-opacity="0.19"/><circle cx="6.9" cy="116.8" r="0.90" fill-opacity="0.20"/><circle cx="2.6" cy="42.5" r="0.46" fill-opacity="0.17"/><circle cx="10.7" cy="99.4" r="0.93" fill-opacity="0.18"/><circle cx="3.1" cy="30.7" r="0.92" fill-opacity="0.15"/><circle cx="75.2" cy="106.1" r="1.06" fill-opacity="0.12"/><circle cx="95.5" cy="44.5" r="0.57" fill-opacity="0.22"/><circle cx="92.4" cy="19.1" r="0.97" fill-opacity="0.13"/><circle cx="104.7" cy="22.0" r="0.85" fill-opacity="0.15"/><circle cx="8.9" cy="84.6" r="0.77" fill-opacity="0.12"/><circle cx="114.1" cy="65.2" r="0.74" fill-opacity="0.14"/><circle cx="95.6" cy="76.3" r="1.09" fill-opacity="0.21"/><circle cx="78.1" cy="109.9" r="0.76" fill-opacity="0.10"/><circle cx="106.0" cy="56.3" r="1.03" fill-opacity="0.20"/><circle cx="78.9" cy="105.2" r="0.54" fill-opacity="0.16"/><circle cx="108.8" cy="16.6" r="0.40" fill-opacity="0.19"/><circle cx="45.5" cy="54.8" r="0.68" fill-opacity="0.21"/><circle cx="94.3" cy="4.0" r="0.63" fill-opacity="0.20"/><circle cx="87.9" cy="45.1" r="1.01" fill-opacity="0.19"/><circle cx="99.8" cy="107.7" r="0.49" fill-opacity="0.12"/><circle cx="57.1" cy="117.6" r="0.97" fill-opacity="0.19"/><circle cx="92.2" cy="98.6" r="0.84" fill-opacity="0.13"/><circle cx="95.0" cy="71.2" r="0.84" fill-opacity="0.17"/><circle cx="100.3" cy="6.6" r="1.02" fill-opacity="0.09"/><circle cx="11.2" cy="69.6" r="0.89" fill-opacity="0.11"/><circle cx="27.6" cy="102.6" r="0.80" fill-opacity="0.17"/><circle cx="58.2" cy="40.7" r="1.04" fill-opacity="0.15"/><circle cx="114.6" cy="66.9" r="0.85" fill-opacity="0.21"/><circle cx="16.4" cy="29.0" r="0.81" fill-opacity="0.11"/><circle cx="10.2" cy="76.6" r="1.09" fill-opacity="0.15"/><circle cx="76.5" cy="87.3" r="0.49" fill-opacity="0.18"/><circle cx="21.8" cy="60.8" r="0.50" fill-opacity="0.16"/><circle cx="100.6" cy="39.8" r="1.06" fill-opacity="0.17"/><circle cx="106.9" cy="8.7" r="0.67" fill-opacity="0.21"/><circle cx="61.2" cy="15.8" r="1.06" fill-opacity="0.19"/><circle cx="63.2" cy="93.1" r="0.57" fill-opacity="0.18"/><circle cx="83.6" cy="58.1" r="0.55" fill-opacity="0.18"/><circle cx="96.8" cy="21.0" r="0.92" fill-opacity="0.09"/><circle cx="35.5" cy="14.1" r="0.42" fill-opacity="0.20"/><circle cx="28.8" cy="43.9" r="1.08" fill-opacity="0.20"/><circle cx="64.6" cy="102.8" r="0.51" fill-opacity="0.09"/><circle cx="118.5" cy="25.2" r="0.97" fill-opacity="0.13"/><circle cx="79.3" cy="99.0" r="0.42" fill-opacity="0.11"/><circle cx="27.0" cy="89.4" r="0.92" fill-opacity="0.17"/><circle cx="58.1" cy="68.7" r="0.51" fill-opacity="0.18"/><circle cx="18.7" cy="81.3" r="0.42" fill-opacity="0.21"/><circle cx="17.2" cy="56.4" r="0.51" fill-opacity="0.09"/><circle cx="54.5" cy="96.4" r="0.83" fill-opacity="0.11"/><circle cx="30.4" cy="60.9" r="0.46" fill-opacity="0.17"/><circle cx="75.2" cy="115.8" r="0.71" fill-opacity="0.13"/><circle cx="26.2" cy="67.6" r="0.49" fill-opacity="0.18"/><circle cx="5.0" cy="105.0" r="0.75" fill-opacity="0.20"/><circle cx="9.6" cy="59.8" r="0.48" fill-opacity="0.11"/><circle cx="65.8" cy="94.6" r="0.95" fill-opacity="0.20"/><circle cx="107.5" cy="76.0" r="0.47" fill-opacity="0.12"/><circle cx="111.8" cy="118.4" r="0.63" fill-opacity="0.09"/><circle cx="103.8" cy="116.4" r="0.57" fill-opacity="0.15"/><circle cx="11.9" cy="18.8" r="0.48" fill-opacity="0.19"/><circle cx="5.1" cy="32.2" r="0.66" fill-opacity="0.11"/><circle cx="99.1" cy="103.7" r="0.68" fill-opacity="0.19"/><circle cx="40.0" cy="7.8" r="0.56" fill-opacity="0.17"/><circle cx="83.9" cy="24.4" r="0.73" fill-opacity="0.14"/><circle cx="2.6" cy="115.5" r="0.46" fill-opacity="0.16"/><circle cx="59.3" cy="14.9" r="0.67" fill-opacity="0.16"/><circle cx="18.1" cy="50.5" r="0.66" fill-opacity="0.17"/><circle cx="11.6" cy="16.5" r="1.04" fill-opacity="0.19"/><circle cx="104.6" cy="24.1" r="1.00" fill-opacity="0.10"/><circle cx="31.6" cy="107.4" r="0.91" fill-opacity="0.18"/><circle cx="102.4" cy="9.1" r="0.54" fill-opacity="0.11"/><circle cx="101.9" cy="90.1" r="0.97" fill-opacity="0.09"/><circle cx="32.3" cy="67.9" r="0.52" fill-opacity="0.17"/><circle cx="39.2" cy="0.8" r="0.74" fill-opacity="0.10"/><circle cx="0.3" cy="51.7" r="0.91" fill-opacity="0.19"/><circle cx="100.2" cy="34.3" r="1.02" fill-opacity="0.11"/></g></pattern>
<radialGradient id="halo"><stop offset="0" stop-color="#f7b3d6" stop-opacity=".3"/><stop offset="1" stop-color="#f7b3d6" stop-opacity="0"/></radialGradient>
</defs>
<g transform="rotate(0 500.0 140.0)">
<g fill="url(#pf)" stroke="#b9a2f0" stroke-width="2.5"><rect x="8" y="8" width="984" height="264" rx="14"/></g>
<g fill="url(#grain)"><rect x="8" y="8" width="984" height="264" rx="14"/></g>
<circle cx="880" cy="140" r="100" fill="url(#halo)"/><g transform="translate(880 140)"><path d="M0 -70 L40 -20 L0 70 L-40 -20 Z" fill="#cdb9f5"/><path d="M0 -70 L0 70 L-40 -20 Z" fill="#7c5bd6"/><path d="M-40 -20 H40" stroke="#f6f0ff" stroke-width="2"/></g><text x="40" y="62" class="rar" text-anchor="start" fill="#c24f8c">LEGENDARY · COMPANION · MAIN QUEST</text><text x="40" y="130" font-family="Georgia, &#x27;Palatino Linotype&#x27;, &#x27;Book Antiqua&#x27;, &#x27;Times New Roman&#x27;, serif" font-size="64" font-weight="bold" fill="#3a2a5e">Mana</text><text x="40" y="178" font-family="Georgia, &#x27;Palatino Linotype&#x27;, &#x27;Book Antiqua&#x27;, &#x27;Times New Roman&#x27;, serif" font-size="28" fill="#4f4270">Windows AI companion with a Live2D avatar. Speech-to-text,</text><text x="40" y="214" font-family="Georgia, &#x27;Palatino Linotype&#x27;, &#x27;Book Antiqua&#x27;, &#x27;Times New Roman&#x27;, serif" font-size="28" fill="#4f4270">LLM, TTS and screen awareness all run on your own PC.</text><text x="40" y="258" class="st" text-anchor="start">C# · JS · llama.cpp · Live2D</text><g transform="translate(965 40)" fill="#f4a9cf"><ellipse rx="5.5" ry="10.0" transform="rotate(0) translate(0 -10.0)"/><ellipse rx="5.5" ry="10.0" transform="rotate(72) translate(0 -10.0)"/><ellipse rx="5.5" ry="10.0" transform="rotate(144) translate(0 -10.0)"/><ellipse rx="5.5" ry="10.0" transform="rotate(216) translate(0 -10.0)"/><ellipse rx="5.5" ry="10.0" transform="rotate(288) translate(0 -10.0)"/><circle r="3.8" fill="#fff3b0"/></g>
</g>
</svg>