<svg width="330" height="400" viewBox="0 0 330 400" xmlns="http://www.w3.org/2000/svg">
<title>Quest: Browse the armory</title>
<defs><style>
  .rar { font: bold 22px Georgia, 'Palatino Linotype', 'Book Antiqua', 'Times New Roman', serif; letter-spacing: 3px; }
  .nm { font: bold 40px Georgia, 'Palatino Linotype', 'Book Antiqua', 'Times New Roman', serif; fill: #3a2a5e; }
  .ds { font: 28px Georgia, 'Palatino Linotype', 'Book Antiqua', 'Times New Roman', serif; fill: #4f4270; }
  .st { font: italic 24px Georgia, 'Palatino Linotype', 'Book Antiqua', 'Times New Roman', serif; fill: #7d66b8; }
  .lb { font: 18px Georgia, 'Palatino Linotype', 'Book Antiqua', 'Times New Roman', serif; letter-spacing: 3px; fill: #8a74c8; }
  .tl { font: bold 32px Georgia, 'Palatino Linotype', 'Book Antiqua', 'Times New Roman', serif; fill: #3a2a5e; }
  .eq { font: 30px Georgia, 'Palatino Linotype', 'Book Antiqua', 'Times New Roman', serif; fill: #4f4270; }
</style>
<linearGradient id="pf" x1="0" y1="0" x2="1" y2="1"><stop offset="0" stop-color="#f6f0ff"/><stop offset="1" stop-color="#e0d2fb"/></linearGradient>
<pattern id="grain" width="120" height="120" patternUnits="userSpaceOnUse"><g fill="#3a2a5e"><circle cx="60.8" cy="106.2" r="0.74" fill-opacity="0.12"/><circle cx="30.6" cy="89.3" r="0.83" fill-opacity="0.13"/><circle cx="110.9" cy="63.2" r="0.42" fill-opacity="0.14"/><circle cx="99.4" cy="17.8" r="0.97" fill-opacity="0.19"/><circle cx="119.5" cy="112.2" r="0.65" fill-opacity="0.12"/><circle cx="99.8" cy="39.5" r="0.55" fill-opacity="0.18"/><circle cx="59.1" cy="19.1" r="1.03" fill-opacity="0.12"/><circle cx="45.9" cy="117.8" r="0.91" fill-opacity="0.11"/><circle cx="87.2" cy="50.0" r="0.46" fill-opacity="0.14"/><circle cx="13.0" cy="118.8" r="0.60" fill-opacity="0.10"/><circle cx="52.5" cy="119.9" r="0.76" fill-opacity="0.14"/><circle cx="67.4" cy="119.1" r="0.85" fill-opacity="0.15"/><circle cx="43.3" cy="23.8" r="0.65" fill-opacity="0.22"/><circle cx="72.5" cy="9.1" r="0.86" fill-opacity="0.21"/><circle cx="113.1" cy="114.9" r="0.62" fill-opacity="0.14"/><circle cx="59.9" cy="86.5" r="0.99" fill-opacity="0.19"/><circle cx="105.8" cy="38.9" r="0.75" fill-opacity="0.13"/><circle cx="5.6" cy="116.8" r="0.92" fill-opacity="0.12"/><circle cx="57.4" cy="33.4" r="0.62" fill-opacity="0.10"/><circle cx="48.3" cy="78.6" r="0.62" fill-opacity="0.16"/><circle cx="14.2" cy="14.8" r="0.55" fill-opacity="0.09"/><circle cx="98.7" cy="50.3" r="0.71" fill-opacity="0.10"/><circle cx="93.6" cy="47.3" r="0.50" fill-opacity="0.09"/><circle cx="91.2" cy="72.1" r="0.70" fill-opacity="0.14"/><circle cx="72.8" cy="55.4" r="0.53" fill-opacity="0.12"/><circle cx="25.1" cy="26.5" r="0.55" fill-opacity="0.13"/><circle cx="116.9" cy="8.8" r="0.59" fill-opacity="0.19"/><circle cx="39.7" cy="58.6" r="0.60" fill-opacity="0.15"/><circle cx="31.1" cy="21.1" r="0.78" fill-opacity="0.11"/><circle cx="68.0" cy="92.1" r="0.87" fill-opacity="0.15"/><circle cx="87.8" cy="22.9" r="0.47" fill-opacity="0.12"/><circle cx="43.1" cy="68.9" r="1.08" fill-opacity="0.16"/><circle cx="33.7" cy="18.1" r="1.10" fill-opacity="0.09"/><circle cx="81.3" cy="89.6" r="0.60" fill-opacity="0.11"/><circle cx="109.7" cy="115.7" r="0.95" fill-opacity="0.12"/><circle cx="72.3" cy="108.4" r="0.96" fill-opacity="0.11"/><circle cx="33.6" cy="75.3" r="0.89" fill-opacity="0.10"/><circle cx="11.2" cy="23.1" r="0.41" fill-opacity="0.12"/><circle cx="118.6" cy="104.3" r="0.86" fill-opacity="0.09"/><circle cx="66.7" cy="15.2" r="0.82" fill-opacity="0.17"/><circle cx="103.7" cy="92.9" r="0.43" fill-opacity="0.16"/><circle cx="70.7" cy="104.0" r="0.54" fill-opacity="0.14"/><circle cx="119.6" cy="116.8" r="0.43" fill-opacity="0.13"/><circle cx="94.3" cy="55.5" r="0.68" fill-opacity="0.11"/><circle cx="33.0" cy="77.9" r="0.63" fill-opacity="0.08"/><circle cx="80.6" cy="73.9" r="0.78" fill-opacity="0.08"/><circle cx="106.8" cy="81.6" r="1.09" fill-opacity="0.08"/><circle cx="44.0" cy="32.6" r="0.73" fill-opacity="0.17"/><circle cx="17.4" cy="41.6" r="0.76" fill-opacity="0.10"/><circle cx="89.6" cy="48.5" r="0.58" fill-opacity="0.16"/><circle cx="91.0" cy="98.1" r="0.82" fill-opacity="0.18"/><circle cx="107.6" cy="58.6" r="1.09" fill-opacity="0.13"/><circle cx="71.8" cy="70.2" r="0.84" fill-opacity="0.22"/><circle cx="47.7" cy="69.8" r="0.54" fill-opacity="0.09"/><circle cx="33.1" cy="84.3" r="0.89" fill-opacity="0.10"/><circle cx="86.8" cy="1.1" r="0.47" fill-opacity="0.17"/><circle cx="79.7" cy="16.9" r="0.79" fill-opacity="0.18"/><circle cx="51.4" cy="49.6" r="0.80" fill-opacity="0.17"/><circle cx="84.8" cy="59.2" r="0.57" fill-opacity="0.22"/><circle cx="44.4" cy="61.7" r="1.08" fill-opacity="0.20"/><circle cx="54.6" cy="51.6" r="0.74" fill-opacity="0.17"/><circle cx="32.8" cy="93.5" r="1.01" fill-opacity="0.22"/><circle cx="26.9" cy="37.7" r="0.73" fill-opacity="0.15"/><circle cx="68.4" cy="63.7" r="0.63" fill-opacity="0.18"/><circle cx="2.3" cy="111.3" r="0.54" fill-opacity="0.20"/><circle cx="47.5" cy="93.7" r="0.64" fill-opacity="0.20"/><circle cx="42.3" cy="96.2" r="1.03" fill-opacity="0.19"/><circle cx="79.4" cy="44.7" r="0.77" fill-opacity="0.19"/><circle cx="94.8" cy="112.6" r="0.83" fill-opacity="0.18"/><circle cx="78.7" cy="82.1" r="0.53" fill-opacity="0.20"/><circle cx="42.9" cy="23.1" r="0.61" fill-opacity="0.08"/><circle cx="18.9" cy="70.2" r="0.44" fill-opacity="0.10"/><circle cx="55.8" cy="23.8" r="1.02" fill-opacity="0.11"/><circle cx="110.3" cy="88.4" r="1.02" fill-opacity="0.10"/><circle cx="109.9" cy="50.3" r="0.96" fill-opacity="0.13"/><circle cx="14.3" cy="84.3" r="0.82" fill-opacity="0.18"/><circle cx="64.4" cy="119.4" r="0.52" fill-opacity="0.10"/><circle cx="40.8" cy="76.1" r="0.76" fill-opacity="0.18"/><circle cx="58.4" cy="106.1" r="0.79" fill-opacity="0.10"/><circle cx="52.3" cy="76.6" r="0.70" fill-opacity="0.14"/><circle cx="53.8" cy="73.5" r="0.55" fill-opacity="0.16"/><circle cx="15.6" cy="79.0" r="1.03" fill-opacity="0.10"/><circle cx="29.7" cy="58.1" r="0.52" fill-opacity="0.21"/><circle cx="89.1" cy="116.0" r="0.99" fill-opacity="0.18"/><circle cx="77.7" cy="28.7" r="0.82" fill-opacity="0.18"/><circle cx="58.4" cy="83.7" r="0.99" fill-opacity="0.09"/><circle cx="118.3" cy="35.2" r="0.51" fill-opacity="0.19"/><circle cx="60.2" cy="96.7" r="0.45" fill-opacity="0.13"/><circle cx="93.9" cy="115.9" r="0.82" fill-opacity="0.13"/><circle cx="45.8" cy="76.2" r="0.60" fill-opacity="0.13"/><circle cx="31.8" cy="55.4" r="0.43" fill-opacity="0.11"/><circle cx="89.4" cy="29.2" r="0.92" fill-opacity="0.22"/><circle cx="12.6" cy="18.6" r="0.59" fill-opacity="0.21"/><circle cx="99.8" cy="24.4" r="0.69" fill-opacity="0.16"/><circle cx="35.1" cy="37.3" r="0.61" fill-opacity="0.12"/><circle cx="107.1" cy="105.1" r="0.78" fill-opacity="0.09"/><circle cx="12.2" cy="7.4" r="0.46" fill-opacity="0.13"/><circle cx="94.6" cy="70.4" r="0.96" fill-opacity="0.15"/><circle cx="104.8" cy="31.0" r="0.71" fill-opacity="0.18"/><circle cx="39.1" cy="51.3" r="0.73" fill-opacity="0.10"/><circle cx="103.6" cy="8.7" r="1.07" fill-opacity="0.08"/><circle cx="90.0" cy="29.3" r="0.94" fill-opacity="0.09"/><circle cx="25.0" cy="25.7" r="0.93" fill-opacity="0.11"/><circle cx="117.7" cy="108.0" r="0.56" fill-opacity="0.16"/><circle cx="62.5" cy="19.4" r="0.50" fill-opacity="0.21"/><circle cx="14.0" cy="41.7" r="1.03" fill-opacity="0.10"/><circle cx="53.8" cy="18.6" r="1.01" fill-opacity="0.17"/><circle cx="109.4" cy="112.9" r="0.64" fill-opacity="0.16"/><circle cx="23.4" cy="96.3" r="0.77" fill-opacity="0.17"/><circle cx="104.7" cy="42.6" r="0.94" fill-opacity="0.16"/></g></pattern>

</defs>
<g transform="rotate(1.5 165.0 200.0)">
<g fill="url(#pf)"><rect x="12" y="12" width="306" height="376" rx="12"/></g>
<g fill="url(#grain)"><rect x="12" y="12" width="306" height="376" rx="12"/></g>
<rect x="12" y="12" width="306" height="376" rx="12" fill="none" stroke="#b9a2f0" stroke-width="2"/>
<circle cx="165" cy="38" r="10" fill="#f4a9cf"/><circle cx="162" cy="35" r="3" fill="#fff" fill-opacity=".7"/><text x="34" y="90" class="tl" text-anchor="start">Browse the</text><text x="34" y="126" class="tl" text-anchor="start">armory</text><text x="34" y="176" class="lb" text-anchor="start">OBJECTIVE</text><text x="34" y="210" class="ds" text-anchor="start">Look through every</text><text x="34" y="242" class="ds" text-anchor="start">repository.</text><text x="34" y="294" class="lb" text-anchor="start">REWARD</text><text x="34" y="328" class="ds" text-anchor="start">A seat by</text><text x="34" y="360" class="ds" text-anchor="start">the fire.</text>
</g>
</svg>